<svg id="Calque_1" data-name="Calque 1" xmlns="http://www.w3.org/2000/svg" viewBox="0 0 25 25"><defs><style>.cls-1{fill:#2896d2;}</style></defs><title>icon-website</title><g id="Canvas"><g id="noun_376853_cc" data-name="noun 376853 cc"><g id="Group"><g id="Vector"><path id="path0_fill" data-name="path0 fill" class="cls-1" d="M12.5,0a12.5,12.5,0,1,0,8.84,3.66A12.52,12.52,0,0,0,12.5,0Zm0,4.5a8,8,0,1,1-8,8A8,8,0,0,1,12.5,4.5Zm0,1a1.09,1.09,0,0,0-.77.43,4.65,4.65,0,0,0-.84,1.45,11.59,11.59,0,0,0-.56,2.12h4.34a11.59,11.59,0,0,0-.56-2.12,4.65,4.65,0,0,0-.84-1.45A1.09,1.09,0,0,0,12.5,5.5Zm-1.9.27A7,7,0,0,0,6.18,9.5H9.31A12.07,12.07,0,0,1,10,7,6.63,6.63,0,0,1,10.6,5.77Zm3.8,0A6.63,6.63,0,0,1,15,7a12.07,12.07,0,0,1,.65,2.48h3.13A7,7,0,0,0,14.4,5.77ZM5.79,10.5a7,7,0,0,0,0,4h3.4a18.22,18.22,0,0,1-.12-2,18.22,18.22,0,0,1,.12-2Zm4.41,0a15.45,15.45,0,0,0,0,4h4.6a16,16,0,0,0,.13-2,16,16,0,0,0-.13-2Zm5.61,0a18.22,18.22,0,0,1,.12,2,18.22,18.22,0,0,1-.12,2h3.4a7,7,0,0,0,0-4Zm-9.63,5a7,7,0,0,0,4.42,3.73A6.85,6.85,0,0,1,10,18a12.35,12.35,0,0,1-.65-2.49Zm4.15,0a11.38,11.38,0,0,0,.56,2.12,4.65,4.65,0,0,0,.84,1.45,1.05,1.05,0,0,0,.77.43,1.05,1.05,0,0,0,.77-.43,4.65,4.65,0,0,0,.84-1.45,11.38,11.38,0,0,0,.56-2.12Zm5.36,0A12.35,12.35,0,0,1,15,18a6.85,6.85,0,0,1-.64,1.24,7,7,0,0,0,4.42-3.73Z" transform="translate(0 0)"/></g></g></g></g></svg>