<?xml version="1.0" encoding="utf-8"?>
<!-- Generator: Adobe Illustrator 22.0.0, SVG Export Plug-In . SVG Version: 6.00 Build 0)  -->
<svg version="1.1" id="Calque_1" xmlns="http://www.w3.org/2000/svg" xmlns:xlink="http://www.w3.org/1999/xlink" x="0px" y="0px"
	 viewBox="0 0 25 25" style="enable-background:new 0 0 25 25;" xml:space="preserve">
<style type="text/css">
	.st0{fill:#DDBBB6;}
	.st1{fill:#FFFFFF;}
</style>
<title>icon-phonemob</title>
<g id="noun_555068_cc">
	<g id="Vector">
		<path id="path0_fill" class="st0" d="M12.5,25C5.6,25,0,19.4,0,12.5S5.6,0,12.5,0S25,5.6,25,12.5S19.4,25,12.5,25z M15.1,14.1
			c-0.7,0.5-1.2,1.2-1.6,2c-2.1-0.9-3.7-2.5-4.7-4.6c0.8-0.4,1.5-0.9,2-1.6c-0.1-1.4-0.9-2.7-2-3.6c-1.5,0.5-2.6,2-2.6,3.6
			c0.1,4.7,3.8,8.6,8.6,8.9c1.7,0,3.3-1,3.9-2.6C17.9,15,16.6,14.2,15.1,14.1L15.1,14.1z"/>
	</g>
</g>
<rect x="5" y="5" class="st0" width="14.1" height="14.1"/>
<path class="st1" d="M17.2,2.7H8.6C7.8,2.7,7.3,3.3,7.3,4c0,0,0,0,0,0v16.7c0,0.7,0.6,1.3,1.3,1.3c0,0,0,0,0,0h8.6
	c0.7,0,1.3-0.6,1.3-1.3V4C18.5,3.3,17.9,2.7,17.2,2.7C17.2,2.7,17.2,2.7,17.2,2.7z M11.5,3.6h2.8c0.1,0,0.1,0.1,0.1,0.2
	c0,0.1-0.1,0.2-0.1,0.2h-2.8c-0.1,0-0.2-0.1-0.2-0.2C11.3,3.7,11.4,3.6,11.5,3.6z M12.9,21.3c-0.4,0-0.7-0.3-0.7-0.6
	s0.3-0.6,0.6-0.6s0.7,0.3,0.7,0.6l0,0C13.5,21,13.2,21.3,12.9,21.3z M17.6,19.6H8.2V4.7h9.4L17.6,19.6z"/>
</svg>
